<?xml version="1.0" encoding="UTF-8" standalone="no"?>
<!-- Created with Inkscape (http://www.inkscape.org/) -->

<svg
   xmlns:dc="http://purl.org/dc/elements/1.1/"
   xmlns:cc="http://creativecommons.org/ns#"
   xmlns:rdf="http://www.w3.org/1999/02/22-rdf-syntax-ns#"
   xmlns:svg="http://www.w3.org/2000/svg"
   xmlns="http://www.w3.org/2000/svg"
   xmlns:sodipodi="http://sodipodi.sourceforge.net/DTD/sodipodi-0.dtd"
   xmlns:inkscape="http://www.inkscape.org/namespaces/inkscape"
   width="1280"
   height="236.49005"
   viewBox="0 0 338.66666 62.571325"
   version="1.1"
   id="svg8"
   inkscape:version="0.92.3 (2405546, 2018-03-11)"
   sodipodi:docname="garden.svg">
  <defs
     id="defs2">
    <clipPath
       clipPathUnits="userSpaceOnUse"
       id="clipPath819">
      <rect
         style="opacity:1;fill:#065b13;fill-opacity:1;stroke:none;stroke-width:5.29166651;stroke-linecap:square;stroke-miterlimit:4;stroke-dasharray:none"
         id="rect821"
         width="338.66666"
         height="79.375"
         x="0"
         y="217.625" />
    </clipPath>
    <clipPath
       clipPathUnits="userSpaceOnUse"
       id="clipPath1124">
      <rect
         style="opacity:1;fill:#000000;fill-opacity:1;stroke:none;stroke-width:2;stroke-linecap:square;stroke-miterlimit:4;stroke-dasharray:none;stroke-opacity:1"
         id="rect1126"
         width="338.66666"
         height="66.282211"
         x="0"
         y="217.625" />
    </clipPath>
  </defs>
  <sodipodi:namedview
     id="base"
     pagecolor="#ffffff"
     bordercolor="#666666"
     borderopacity="1.0"
     inkscape:pageopacity="0.0"
     inkscape:pageshadow="2"
     inkscape:zoom="0.60625"
     inkscape:cx="688.92317"
     inkscape:cy="167.21369"
     inkscape:document-units="px"
     inkscape:current-layer="layer1"
     showgrid="false"
     units="px"
     inkscape:snap-page="false"
     inkscape:snap-global="true"
     inkscape:window-width="1280"
     inkscape:window-height="979"
     inkscape:window-x="1280"
     inkscape:window-y="0"
     inkscape:window-maximized="1" />
  <metadata
     id="metadata5">
    <rdf:RDF>
      <cc:Work
         rdf:about="">
        <dc:format>image/svg+xml</dc:format>
        <dc:type
           rdf:resource="http://purl.org/dc/dcmitype/StillImage" />
        <dc:title />
      </cc:Work>
    </rdf:RDF>
  </metadata>
  <g
     inkscape:label="Layer 1"
     inkscape:groupmode="layer"
     id="layer1"
     transform="translate(0,-221.33589)">
    <g
       id="g1101"
       clip-path="url(#clipPath1124)"
       transform="matrix(1.0004671,0,0,1,0.00570794,0)">
      <path
         clip-path="url(#clipPath819)"
         inkscape:connector-curvature="0"
         id="path815"
         d="m 0,283.03436 c 0,0 62.889109,-25.40908 120.45361,-20.0756 51.14107,4.73834 64.59106,13.52921 110.85223,17.02062 46.26118,3.49141 57.6221,0.87285 98.6323,-6.54639 12.12334,-2.19326 23.56702,-7.41924 23.56702,-7.41924 l -11.78351,46.26116 -288.91409,1.74571 -55.8625428,-1.74571 -9.1649482,-18.76632 z"
         style="fill:#065b13;fill-opacity:1;stroke:none;stroke-width:0.26458332px;stroke-linecap:butt;stroke-linejoin:miter;stroke-opacity:1"
         sodipodi:nodetypes="cssscccccc" />
      <g
         transform="matrix(0.65891476,0,0,0.65891476,27.156525,11.547393)"
         id="g853">
        <rect
           style="opacity:1;fill:#065b13;fill-opacity:1;stroke:none;stroke-width:5.29166651;stroke-linecap:square;stroke-miterlimit:4;stroke-dasharray:none"
           id="rect823"
           width="4.8006868"
           height="40.587631"
           x="132.23711"
           y="348.49829" />
        <g
           id="g843">
          <circle
             r="17.457043"
             cy="352.42612"
             cx="145.3299"
             id="path825"
             style="opacity:1;fill:#065b13;fill-opacity:1;stroke:none;stroke-width:5.29166651;stroke-linecap:square;stroke-miterlimit:4;stroke-dasharray:none" />
          <circle
             style="opacity:1;fill:#065b13;fill-opacity:1;stroke:none;stroke-width:5.29166651;stroke-linecap:square;stroke-miterlimit:4;stroke-dasharray:none"
             id="circle827"
             cx="135.72852"
             cy="335.84192"
             r="17.457043" />
          <circle
             r="17.457043"
             cy="348.49829"
             cx="123.94501"
             id="circle829"
             style="opacity:1;fill:#065b13;fill-opacity:1;stroke:none;stroke-width:5.29166651;stroke-linecap:square;stroke-miterlimit:4;stroke-dasharray:none" />
          <circle
             style="opacity:1;fill:#065b13;fill-opacity:1;stroke:none;stroke-width:2.64583302;stroke-linecap:square;stroke-miterlimit:4;stroke-dasharray:none"
             id="circle831"
             cx="119.58075"
             cy="334.96906"
             r="8.7285204" />
          <circle
             r="10.910651"
             cy="338.89691"
             cx="150.567"
             id="circle833"
             style="opacity:1;fill:#065b13;fill-opacity:1;stroke:none;stroke-width:3.30729127;stroke-linecap:square;stroke-miterlimit:4;stroke-dasharray:none" />
          <circle
             r="8.7285204"
             cy="361.59103"
             cx="127.87285"
             id="circle835"
             style="opacity:1;fill:#065b13;fill-opacity:1;stroke:none;stroke-width:2.64583302;stroke-linecap:square;stroke-miterlimit:4;stroke-dasharray:none" />
        </g>
      </g>
      <g
         transform="matrix(0.51937989,0,0,0.51937989,25.867544,67.01579)"
         id="g871">
        <rect
           y="348.49829"
           x="132.23711"
           height="40.587631"
           width="4.8006868"
           id="rect855"
           style="opacity:1;fill:#065b13;fill-opacity:1;stroke:none;stroke-width:5.29166651;stroke-linecap:square;stroke-miterlimit:4;stroke-dasharray:none" />
        <g
           id="g869">
          <circle
             style="opacity:1;fill:#065b13;fill-opacity:1;stroke:none;stroke-width:5.29166651;stroke-linecap:square;stroke-miterlimit:4;stroke-dasharray:none"
             id="circle857"
             cx="145.3299"
             cy="352.42612"
             r="17.457043" />
          <circle
             r="17.457043"
             cy="335.84192"
             cx="135.72852"
             id="circle859"
             style="opacity:1;fill:#065b13;fill-opacity:1;stroke:none;stroke-width:5.29166651;stroke-linecap:square;stroke-miterlimit:4;stroke-dasharray:none" />
          <circle
             style="opacity:1;fill:#065b13;fill-opacity:1;stroke:none;stroke-width:5.29166651;stroke-linecap:square;stroke-miterlimit:4;stroke-dasharray:none"
             id="circle861"
             cx="123.94501"
             cy="348.49829"
             r="17.457043" />
          <circle
             r="8.7285204"
             cy="334.96906"
             cx="119.58075"
             id="circle863"
             style="opacity:1;fill:#065b13;fill-opacity:1;stroke:none;stroke-width:2.64583302;stroke-linecap:square;stroke-miterlimit:4;stroke-dasharray:none" />
          <circle
             style="opacity:1;fill:#065b13;fill-opacity:1;stroke:none;stroke-width:3.30729127;stroke-linecap:square;stroke-miterlimit:4;stroke-dasharray:none"
             id="circle865"
             cx="150.567"
             cy="338.89691"
             r="10.910651" />
          <circle
             style="opacity:1;fill:#065b13;fill-opacity:1;stroke:none;stroke-width:2.64583302;stroke-linecap:square;stroke-miterlimit:4;stroke-dasharray:none"
             id="circle867"
             cx="127.87285"
             cy="361.59103"
             r="8.7285204" />
        </g>
      </g>
      <g
         transform="matrix(0.49382728,0,0,0.49382728,10.977985,73.92706)"
         id="g889">
        <rect
           style="opacity:1;fill:#065b13;fill-opacity:1;stroke:none;stroke-width:5.29166651;stroke-linecap:square;stroke-miterlimit:4;stroke-dasharray:none"
           id="rect873"
           width="4.8006868"
           height="40.587631"
           x="132.23711"
           y="348.49829" />
        <g
           id="g887">
          <circle
             r="17.457043"
             cy="352.42612"
             cx="145.3299"
             id="circle875"
             style="opacity:1;fill:#065b13;fill-opacity:1;stroke:none;stroke-width:5.29166651;stroke-linecap:square;stroke-miterlimit:4;stroke-dasharray:none" />
          <circle
             style="opacity:1;fill:#065b13;fill-opacity:1;stroke:none;stroke-width:5.29166651;stroke-linecap:square;stroke-miterlimit:4;stroke-dasharray:none"
             id="circle877"
             cx="135.72852"
             cy="335.84192"
             r="17.457043" />
          <circle
             r="17.457043"
             cy="348.49829"
             cx="123.94501"
             id="circle879"
             style="opacity:1;fill:#065b13;fill-opacity:1;stroke:none;stroke-width:5.29166651;stroke-linecap:square;stroke-miterlimit:4;stroke-dasharray:none" />
          <circle
             style="opacity:1;fill:#065b13;fill-opacity:1;stroke:none;stroke-width:2.64583302;stroke-linecap:square;stroke-miterlimit:4;stroke-dasharray:none"
             id="circle881"
             cx="119.58075"
             cy="334.96906"
             r="8.7285204" />
          <circle
             r="10.910651"
             cy="338.89691"
             cx="150.567"
             id="circle883"
             style="opacity:1;fill:#065b13;fill-opacity:1;stroke:none;stroke-width:3.30729127;stroke-linecap:square;stroke-miterlimit:4;stroke-dasharray:none" />
          <circle
             r="8.7285204"
             cy="361.59103"
             cx="127.87285"
             id="circle885"
             style="opacity:1;fill:#065b13;fill-opacity:1;stroke:none;stroke-width:2.64583302;stroke-linecap:square;stroke-miterlimit:4;stroke-dasharray:none" />
        </g>
      </g>
      <g
         transform="matrix(0.17082761,0,0,0.17082761,215.93518,207.21522)"
         id="g1029">
        <path
           style="fill:#065b13;fill-opacity:1;stroke:none;stroke-width:0.0834546px;stroke-linecap:butt;stroke-linejoin:miter;stroke-opacity:1"
           d="m 108.31722,346.05205 c -0.4364,-0.006 -0.97678,0.238 -1.29584,1.30773 -0.1718,0.57602 -0.5647,1.02457 -1.03714,1.44806 -1.13817,-1.06665 -2.03795,-1.58236 -2.03795,-1.58236 0,0 -1.57317,-0.5223 -1.6321,1.57814 -0.0169,0.60088 -0.28046,1.13576 -0.62721,1.66712 -1.3754,-0.73568 -2.377809,-1.00096 -2.377809,-1.00096 0,0 -1.654738,-0.0974 -1.168039,1.94667 0.144427,0.60666 0.01435,1.21357 -0.197064,1.84057 -1.516672,-0.35366 -2.551714,-0.35044 -2.551714,-0.35044 0,0 -1.623597,0.33421 -0.624447,2.18269 0.271048,0.50145 0.320114,1.06259 0.295023,1.65948 -1.52787,0.055 -2.505588,0.32029 -2.505588,0.32029 0,0 -1.481681,0.743 -0.0381,2.2699 0.416829,0.44092 0.608251,1.01211 0.738856,1.63991 -1.519429,0.45538 -2.433064,0.98695 -2.433064,0.98695 0,0 -1.238929,1.10133 0.550607,2.20259 0.511982,0.31506 0.843414,0.81065 1.130227,1.37668 -1.324852,0.82329 -2.055881,1.5589 -2.055881,1.5589 0,0 -0.911737,1.3844 1.101851,1.98497 0.576065,0.17181 1.024553,0.56468 1.448078,1.03716 -1.06667,1.13817 -1.582382,2.03795 -1.582382,2.03795 0,0 -0.522279,1.57315 1.578141,1.6321 0.600901,0.0169 1.135751,0.2803 1.667132,0.62705 -0.735723,1.37546 -1.000968,2.37797 -1.000968,2.37797 0,0 -0.0974,1.65472 1.946677,1.16804 0.584784,-0.13933 1.169744,-0.0231 1.77275,0.17423 -0.354675,1.51907 -0.351423,2.55613 -0.351423,2.55613 0,0 0.334206,1.62345 2.182709,0.62427 0.528783,-0.2858 1.123758,-0.32505 1.757268,-0.29044 0.0505,1.55907 0.32225,2.55986 0.32225,2.55986 0,0 0.74299,1.48185 2.26989,0.0383 0.43682,-0.41296 1.00141,-0.60491 1.62232,-0.73545 0.45234,1.49281 0.97359,2.38921 0.97359,2.38921 0,0 1.10131,1.23895 2.20257,-0.55059 0.31506,-0.51198 0.81067,-0.84341 1.37667,-1.13023 0.82332,1.32487 1.55892,2.05588 1.55892,2.05588 0,0 1.38441,0.91174 1.98498,-1.10186 0.17181,-0.57605 0.56468,-1.02454 1.03714,-1.44806 1.13817,1.06663 2.03796,1.58238 2.03796,1.58238 0,0 1.57316,0.52228 1.63209,-1.57814 0.0169,-0.6009 0.28031,-1.13576 0.62706,-1.66714 1.37545,0.73573 2.37796,1.00097 2.37796,1.00097 0,0 1.65473,0.0972 1.16804,-1.94684 -0.13917,-0.58479 -0.0231,-1.16959 0.17425,-1.77259 1.51905,0.35467 2.55611,0.3514 2.55611,0.3514 0,0 1.62346,-0.33419 0.62429,-2.18269 -0.28581,-0.52878 -0.32507,-1.12375 -0.29046,-1.75727 1.55907,-0.0505 2.55987,-0.32225 2.55987,-0.32225 0,0 1.48184,-0.74298 0.0383,-2.26989 -0.41297,-0.43682 -0.60492,-1.00141 -0.73544,-1.62231 1.4928,-0.45237 2.38921,-0.97375 2.38921,-0.97375 0,0 1.23896,-1.10117 -0.55061,-2.20241 -0.51192,-0.31505 -0.84343,-0.81074 -1.13023,-1.37668 1.32489,-0.82333 2.0559,-1.55892 2.0559,-1.55892 0,0 0.91174,-1.38441 -1.10187,-1.98497 -0.57606,-0.17182 -1.02454,-0.56484 -1.44806,-1.03732 1.06657,-1.13811 1.58237,-2.03779 1.58237,-2.03779 0,0 0.52229,-1.57315 -1.57813,-1.63209 -0.6009,-0.0169 -1.13577,-0.28045 -1.66714,-0.62722 0.73567,-1.37538 1.00096,-2.37779 1.00096,-2.37779 0,0 0.0972,-1.65476 -1.94684,-1.16804 -0.58479,0.13916 -1.16957,0.0231 -1.77259,-0.17425 0.35469,-1.51905 0.35142,-2.55612 0.35142,-2.55612 0,0 -0.33421,-1.62362 -2.18269,-0.62444 -0.52879,0.2858 -1.12377,0.32521 -1.75728,0.29062 -0.0505,-1.55909 -0.32225,-2.56004 -0.32225,-2.56004 0,0 -0.743,-1.48169 -2.2699,-0.0381 -0.43681,0.41296 -1.00139,0.60491 -1.62232,0.73545 -0.45234,-1.49286 -0.97373,-2.38937 -0.97373,-2.38937 0,0 -1.10116,-1.2388 -2.20243,0.55076 -0.31506,0.51197 -0.81067,0.84342 -1.37667,1.13023 -0.82332,-1.3249 -1.5589,-2.0559 -1.5589,-2.0559 0,0 -0.3041,-0.20041 -0.68915,-0.20586 z m 1.83405,16.32794 a 3.579084,3.579084 0 0 1 3.57908,3.57908 3.579084,3.579084 0 0 1 -3.57908,3.57909 3.579084,3.579084 0 0 1 -3.57911,-3.57909 3.579084,3.579084 0 0 1 3.57911,-3.57908 z"
           id="path903"
           inkscape:connector-curvature="0" />
        <g
           id="g1022"
           transform="translate(0,53.680412)">
          <path
             inkscape:connector-curvature="0"
             id="path891"
             d="m 84.107701,362.90034 c 13.650432,1.24095 18.117849,-0.49637 21.840699,5.95655 3.72284,6.45293 4.46741,6.70113 4.46741,6.70113 0,0 -2.73009,1.98551 -14.891384,0.74457 -12.161293,-1.24095 -11.416725,-13.40225 -11.416725,-13.40225 z"
             style="fill:#065b13;fill-opacity:1;stroke:none;stroke-width:0.15046498px;stroke-linecap:butt;stroke-linejoin:miter;stroke-opacity:1" />
          <path
             style="fill:#065b13;fill-opacity:1;stroke:none;stroke-width:0.15046498px;stroke-linecap:butt;stroke-linejoin:miter;stroke-opacity:1"
             d="m 136.72392,362.90034 c -13.65044,1.24095 -18.11785,-0.49637 -21.8407,5.95655 -3.72284,6.45293 -4.46741,6.70113 -4.46741,6.70113 0,0 2.73009,1.98551 14.89138,0.74457 12.1613,-1.24095 11.41673,-13.40225 11.41673,-13.40225 z"
             id="path893"
             inkscape:connector-curvature="0" />
          <path
             inkscape:connector-curvature="0"
             id="path895"
             d="m 107.79725,319.69416 c 0,0 -12.21993,8.72852 -6.98281,22.25773 5.23711,13.52921 15.27491,16.14777 12.21993,24.87629 -3.05499,8.72852 -3.05499,8.72852 -3.05499,8.72852"
             style="fill:none;stroke:#065b13;stroke-width:2;stroke-linecap:butt;stroke-linejoin:miter;stroke-miterlimit:4;stroke-dasharray:none;stroke-opacity:1" />
        </g>
      </g>
      <g
         id="g1041"
         transform="matrix(0.17082761,0,0,0.17082761,224.93107,207.74439)">
        <path
           inkscape:connector-curvature="0"
           id="path1031"
           d="m 108.31722,346.05205 c -0.4364,-0.006 -0.97678,0.238 -1.29584,1.30773 -0.1718,0.57602 -0.5647,1.02457 -1.03714,1.44806 -1.13817,-1.06665 -2.03795,-1.58236 -2.03795,-1.58236 0,0 -1.57317,-0.5223 -1.6321,1.57814 -0.0169,0.60088 -0.28046,1.13576 -0.62721,1.66712 -1.3754,-0.73568 -2.377809,-1.00096 -2.377809,-1.00096 0,0 -1.654738,-0.0974 -1.168039,1.94667 0.144427,0.60666 0.01435,1.21357 -0.197064,1.84057 -1.516672,-0.35366 -2.551714,-0.35044 -2.551714,-0.35044 0,0 -1.623597,0.33421 -0.624447,2.18269 0.271048,0.50145 0.320114,1.06259 0.295023,1.65948 -1.52787,0.055 -2.505588,0.32029 -2.505588,0.32029 0,0 -1.481681,0.743 -0.0381,2.2699 0.416829,0.44092 0.608251,1.01211 0.738856,1.63991 -1.519429,0.45538 -2.433064,0.98695 -2.433064,0.98695 0,0 -1.238929,1.10133 0.550607,2.20259 0.511982,0.31506 0.843414,0.81065 1.130227,1.37668 -1.324852,0.82329 -2.055881,1.5589 -2.055881,1.5589 0,0 -0.911737,1.3844 1.101851,1.98497 0.576065,0.17181 1.024553,0.56468 1.448078,1.03716 -1.06667,1.13817 -1.582382,2.03795 -1.582382,2.03795 0,0 -0.522279,1.57315 1.578141,1.6321 0.600901,0.0169 1.135751,0.2803 1.667132,0.62705 -0.735723,1.37546 -1.000968,2.37797 -1.000968,2.37797 0,0 -0.0974,1.65472 1.946677,1.16804 0.584784,-0.13933 1.169744,-0.0231 1.77275,0.17423 -0.354675,1.51907 -0.351423,2.55613 -0.351423,2.55613 0,0 0.334206,1.62345 2.182709,0.62427 0.528783,-0.2858 1.123758,-0.32505 1.757268,-0.29044 0.0505,1.55907 0.32225,2.55986 0.32225,2.55986 0,0 0.74299,1.48185 2.26989,0.0383 0.43682,-0.41296 1.00141,-0.60491 1.62232,-0.73545 0.45234,1.49281 0.97359,2.38921 0.97359,2.38921 0,0 1.10131,1.23895 2.20257,-0.55059 0.31506,-0.51198 0.81067,-0.84341 1.37667,-1.13023 0.82332,1.32487 1.55892,2.05588 1.55892,2.05588 0,0 1.38441,0.91174 1.98498,-1.10186 0.17181,-0.57605 0.56468,-1.02454 1.03714,-1.44806 1.13817,1.06663 2.03796,1.58238 2.03796,1.58238 0,0 1.57316,0.52228 1.63209,-1.57814 0.0169,-0.6009 0.28031,-1.13576 0.62706,-1.66714 1.37545,0.73573 2.37796,1.00097 2.37796,1.00097 0,0 1.65473,0.0972 1.16804,-1.94684 -0.13917,-0.58479 -0.0231,-1.16959 0.17425,-1.77259 1.51905,0.35467 2.55611,0.3514 2.55611,0.3514 0,0 1.62346,-0.33419 0.62429,-2.18269 -0.28581,-0.52878 -0.32507,-1.12375 -0.29046,-1.75727 1.55907,-0.0505 2.55987,-0.32225 2.55987,-0.32225 0,0 1.48184,-0.74298 0.0383,-2.26989 -0.41297,-0.43682 -0.60492,-1.00141 -0.73544,-1.62231 1.4928,-0.45237 2.38921,-0.97375 2.38921,-0.97375 0,0 1.23896,-1.10117 -0.55061,-2.20241 -0.51192,-0.31505 -0.84343,-0.81074 -1.13023,-1.37668 1.32489,-0.82333 2.0559,-1.55892 2.0559,-1.55892 0,0 0.91174,-1.38441 -1.10187,-1.98497 -0.57606,-0.17182 -1.02454,-0.56484 -1.44806,-1.03732 1.06657,-1.13811 1.58237,-2.03779 1.58237,-2.03779 0,0 0.52229,-1.57315 -1.57813,-1.63209 -0.6009,-0.0169 -1.13577,-0.28045 -1.66714,-0.62722 0.73567,-1.37538 1.00096,-2.37779 1.00096,-2.37779 0,0 0.0972,-1.65476 -1.94684,-1.16804 -0.58479,0.13916 -1.16957,0.0231 -1.77259,-0.17425 0.35469,-1.51905 0.35142,-2.55612 0.35142,-2.55612 0,0 -0.33421,-1.62362 -2.18269,-0.62444 -0.52879,0.2858 -1.12377,0.32521 -1.75728,0.29062 -0.0505,-1.55909 -0.32225,-2.56004 -0.32225,-2.56004 0,0 -0.743,-1.48169 -2.2699,-0.0381 -0.43681,0.41296 -1.00139,0.60491 -1.62232,0.73545 -0.45234,-1.49286 -0.97373,-2.38937 -0.97373,-2.38937 0,0 -1.10116,-1.2388 -2.20243,0.55076 -0.31506,0.51197 -0.81067,0.84342 -1.37667,1.13023 -0.82332,-1.3249 -1.5589,-2.0559 -1.5589,-2.0559 0,0 -0.3041,-0.20041 -0.68915,-0.20586 z m 1.83405,16.32794 a 3.579084,3.579084 0 0 1 3.57908,3.57908 3.579084,3.579084 0 0 1 -3.57908,3.57909 3.579084,3.579084 0 0 1 -3.57911,-3.57909 3.579084,3.579084 0 0 1 3.57911,-3.57908 z"
           style="fill:#065b13;fill-opacity:1;stroke:none;stroke-width:0.0834546px;stroke-linecap:butt;stroke-linejoin:miter;stroke-opacity:1" />
        <g
           transform="translate(0,53.680412)"
           id="g1039">
          <path
             style="fill:#065b13;fill-opacity:1;stroke:none;stroke-width:0.15046498px;stroke-linecap:butt;stroke-linejoin:miter;stroke-opacity:1"
             d="m 84.107701,362.90034 c 13.650432,1.24095 18.117849,-0.49637 21.840699,5.95655 3.72284,6.45293 4.46741,6.70113 4.46741,6.70113 0,0 -2.73009,1.98551 -14.891384,0.74457 -12.161293,-1.24095 -11.416725,-13.40225 -11.416725,-13.40225 z"
             id="path1033"
             inkscape:connector-curvature="0" />
          <path
             inkscape:connector-curvature="0"
             id="path1035"
             d="m 136.72392,362.90034 c -13.65044,1.24095 -18.11785,-0.49637 -21.8407,5.95655 -3.72284,6.45293 -4.46741,6.70113 -4.46741,6.70113 0,0 2.73009,1.98551 14.89138,0.74457 12.1613,-1.24095 11.41673,-13.40225 11.41673,-13.40225 z"
             style="fill:#065b13;fill-opacity:1;stroke:none;stroke-width:0.15046498px;stroke-linecap:butt;stroke-linejoin:miter;stroke-opacity:1" />
          <path
             style="fill:none;stroke:#065b13;stroke-width:2;stroke-linecap:butt;stroke-linejoin:miter;stroke-miterlimit:4;stroke-dasharray:none;stroke-opacity:1"
             d="m 107.79725,319.69416 c 0,0 -12.21993,8.72852 -6.98281,22.25773 5.23711,13.52921 15.27491,16.14777 12.21993,24.87629 -3.05499,8.72852 -3.05499,8.72852 -3.05499,8.72852"
             id="path1037"
             inkscape:connector-curvature="0" />
        </g>
      </g>
      <g
         transform="matrix(0.17082761,0,0,0.17082761,233.39779,207.74439)"
         id="g1053">
        <path
           style="fill:#065b13;fill-opacity:1;stroke:none;stroke-width:0.0834546px;stroke-linecap:butt;stroke-linejoin:miter;stroke-opacity:1"
           d="m 108.31722,346.05205 c -0.4364,-0.006 -0.97678,0.238 -1.29584,1.30773 -0.1718,0.57602 -0.5647,1.02457 -1.03714,1.44806 -1.13817,-1.06665 -2.03795,-1.58236 -2.03795,-1.58236 0,0 -1.57317,-0.5223 -1.6321,1.57814 -0.0169,0.60088 -0.28046,1.13576 -0.62721,1.66712 -1.3754,-0.73568 -2.377809,-1.00096 -2.377809,-1.00096 0,0 -1.654738,-0.0974 -1.168039,1.94667 0.144427,0.60666 0.01435,1.21357 -0.197064,1.84057 -1.516672,-0.35366 -2.551714,-0.35044 -2.551714,-0.35044 0,0 -1.623597,0.33421 -0.624447,2.18269 0.271048,0.50145 0.320114,1.06259 0.295023,1.65948 -1.52787,0.055 -2.505588,0.32029 -2.505588,0.32029 0,0 -1.481681,0.743 -0.0381,2.2699 0.416829,0.44092 0.608251,1.01211 0.738856,1.63991 -1.519429,0.45538 -2.433064,0.98695 -2.433064,0.98695 0,0 -1.238929,1.10133 0.550607,2.20259 0.511982,0.31506 0.843414,0.81065 1.130227,1.37668 -1.324852,0.82329 -2.055881,1.5589 -2.055881,1.5589 0,0 -0.911737,1.3844 1.101851,1.98497 0.576065,0.17181 1.024553,0.56468 1.448078,1.03716 -1.06667,1.13817 -1.582382,2.03795 -1.582382,2.03795 0,0 -0.522279,1.57315 1.578141,1.6321 0.600901,0.0169 1.135751,0.2803 1.667132,0.62705 -0.735723,1.37546 -1.000968,2.37797 -1.000968,2.37797 0,0 -0.0974,1.65472 1.946677,1.16804 0.584784,-0.13933 1.169744,-0.0231 1.77275,0.17423 -0.354675,1.51907 -0.351423,2.55613 -0.351423,2.55613 0,0 0.334206,1.62345 2.182709,0.62427 0.528783,-0.2858 1.123758,-0.32505 1.757268,-0.29044 0.0505,1.55907 0.32225,2.55986 0.32225,2.55986 0,0 0.74299,1.48185 2.26989,0.0383 0.43682,-0.41296 1.00141,-0.60491 1.62232,-0.73545 0.45234,1.49281 0.97359,2.38921 0.97359,2.38921 0,0 1.10131,1.23895 2.20257,-0.55059 0.31506,-0.51198 0.81067,-0.84341 1.37667,-1.13023 0.82332,1.32487 1.55892,2.05588 1.55892,2.05588 0,0 1.38441,0.91174 1.98498,-1.10186 0.17181,-0.57605 0.56468,-1.02454 1.03714,-1.44806 1.13817,1.06663 2.03796,1.58238 2.03796,1.58238 0,0 1.57316,0.52228 1.63209,-1.57814 0.0169,-0.6009 0.28031,-1.13576 0.62706,-1.66714 1.37545,0.73573 2.37796,1.00097 2.37796,1.00097 0,0 1.65473,0.0972 1.16804,-1.94684 -0.13917,-0.58479 -0.0231,-1.16959 0.17425,-1.77259 1.51905,0.35467 2.55611,0.3514 2.55611,0.3514 0,0 1.62346,-0.33419 0.62429,-2.18269 -0.28581,-0.52878 -0.32507,-1.12375 -0.29046,-1.75727 1.55907,-0.0505 2.55987,-0.32225 2.55987,-0.32225 0,0 1.48184,-0.74298 0.0383,-2.26989 -0.41297,-0.43682 -0.60492,-1.00141 -0.73544,-1.62231 1.4928,-0.45237 2.38921,-0.97375 2.38921,-0.97375 0,0 1.23896,-1.10117 -0.55061,-2.20241 -0.51192,-0.31505 -0.84343,-0.81074 -1.13023,-1.37668 1.32489,-0.82333 2.0559,-1.55892 2.0559,-1.55892 0,0 0.91174,-1.38441 -1.10187,-1.98497 -0.57606,-0.17182 -1.02454,-0.56484 -1.44806,-1.03732 1.06657,-1.13811 1.58237,-2.03779 1.58237,-2.03779 0,0 0.52229,-1.57315 -1.57813,-1.63209 -0.6009,-0.0169 -1.13577,-0.28045 -1.66714,-0.62722 0.73567,-1.37538 1.00096,-2.37779 1.00096,-2.37779 0,0 0.0972,-1.65476 -1.94684,-1.16804 -0.58479,0.13916 -1.16957,0.0231 -1.77259,-0.17425 0.35469,-1.51905 0.35142,-2.55612 0.35142,-2.55612 0,0 -0.33421,-1.62362 -2.18269,-0.62444 -0.52879,0.2858 -1.12377,0.32521 -1.75728,0.29062 -0.0505,-1.55909 -0.32225,-2.56004 -0.32225,-2.56004 0,0 -0.743,-1.48169 -2.2699,-0.0381 -0.43681,0.41296 -1.00139,0.60491 -1.62232,0.73545 -0.45234,-1.49286 -0.97373,-2.38937 -0.97373,-2.38937 0,0 -1.10116,-1.2388 -2.20243,0.55076 -0.31506,0.51197 -0.81067,0.84342 -1.37667,1.13023 -0.82332,-1.3249 -1.5589,-2.0559 -1.5589,-2.0559 0,0 -0.3041,-0.20041 -0.68915,-0.20586 z m 1.83405,16.32794 a 3.579084,3.579084 0 0 1 3.57908,3.57908 3.579084,3.579084 0 0 1 -3.57908,3.57909 3.579084,3.579084 0 0 1 -3.57911,-3.57909 3.579084,3.579084 0 0 1 3.57911,-3.57908 z"
           id="path1043"
           inkscape:connector-curvature="0" />
        <g
           id="g1051"
           transform="translate(0,53.680412)">
          <path
             inkscape:connector-curvature="0"
             id="path1045"
             d="m 84.107701,362.90034 c 13.650432,1.24095 18.117849,-0.49637 21.840699,5.95655 3.72284,6.45293 4.46741,6.70113 4.46741,6.70113 0,0 -2.73009,1.98551 -14.891384,0.74457 -12.161293,-1.24095 -11.416725,-13.40225 -11.416725,-13.40225 z"
             style="fill:#065b13;fill-opacity:1;stroke:none;stroke-width:0.15046498px;stroke-linecap:butt;stroke-linejoin:miter;stroke-opacity:1" />
          <path
             style="fill:#065b13;fill-opacity:1;stroke:none;stroke-width:0.15046498px;stroke-linecap:butt;stroke-linejoin:miter;stroke-opacity:1"
             d="m 136.72392,362.90034 c -13.65044,1.24095 -18.11785,-0.49637 -21.8407,5.95655 -3.72284,6.45293 -4.46741,6.70113 -4.46741,6.70113 0,0 2.73009,1.98551 14.89138,0.74457 12.1613,-1.24095 11.41673,-13.40225 11.41673,-13.40225 z"
             id="path1047"
             inkscape:connector-curvature="0" />
          <path
             inkscape:connector-curvature="0"
             id="path1049"
             d="m 107.79725,319.69416 c 0,0 -12.21993,8.72852 -6.98281,22.25773 5.23711,13.52921 15.27491,16.14777 12.21993,24.87629 -3.05499,8.72852 -3.05499,8.72852 -3.05499,8.72852"
             style="fill:none;stroke:#065b13;stroke-width:2;stroke-linecap:butt;stroke-linejoin:miter;stroke-miterlimit:4;stroke-dasharray:none;stroke-opacity:1" />
        </g>
      </g>
    </g>
  </g>
</svg>
