<?xml version="1.0" encoding="UTF-8" standalone="no"?>
<svg
   xmlns:dc="http://purl.org/dc/elements/1.1/"
   xmlns:cc="http://creativecommons.org/ns#"
   xmlns:rdf="http://www.w3.org/1999/02/22-rdf-syntax-ns#"
   xmlns:svg="http://www.w3.org/2000/svg"
   xmlns="http://www.w3.org/2000/svg"
   id="svg1028"
   version="1.1"
   viewBox="0 0 13.229166 13.229167"
   height="50"
   width="50">
  <defs
     id="defs1022" />
  <metadata
     id="metadata1025">
    <rdf:RDF>
      <cc:Work
         rdf:about="">
        <dc:format>image/svg+xml</dc:format>
        <dc:type
           rdf:resource="http://purl.org/dc/dcmitype/StillImage" />
        <dc:title></dc:title>
      </cc:Work>
    </rdf:RDF>
  </metadata>
  <g
     transform="translate(0,-283.77081)"
     id="layer1">
    <g
       style="fill:#ffffff;fill-opacity:1"
       id="layer1-73-4-2"
       transform="matrix(0.49999998,0,0,0.49999998,-21.847025,183.46178)">
      <g
         id="g1451-9-6"
         style="fill:#ffffff;fill-opacity:1"
         transform="matrix(0.53287549,0,0,0.53287549,43.694052,200.61806)">
        <g
           id="g1449-9-6"
           style="fill:#ffffff;fill-opacity:1">
          <path
             id="path1441-3-5"
             d="m 24.825,29.796 c 2.739,0 4.972,-2.229 4.972,-4.97 0,-1.082 -0.354,-2.081 -0.94,-2.897 -0.903,-1.252 -2.371,-2.073 -4.029,-2.073 -1.659,0 -3.126,0.82 -4.031,2.072 -0.588,0.816 -0.939,1.815 -0.94,2.897 -0.003,2.741 2.228,4.971 4.968,4.971 z"
             style="fill:#ffffff;fill-opacity:1" />
          <polygon
             id="polygon1443-8-0"
             points="35.678,13.96 35.055,13.962 30.891,13.975 30.907,18.762 35.678,18.746 35.678,14.58 "
             style="fill:#ffffff;fill-opacity:1" />
          <path
             id="path1445-3-5"
             d="M 24.826,0 C 11.137,0 0,11.137 0,24.826 0,38.514 11.137,49.652 24.826,49.652 38.514,49.652 49.652,38.514 49.652,24.826 49.652,11.137 38.516,0 24.826,0 Z m 14.119,21.929 v 11.56 c 0,3.011 -2.448,5.458 -5.457,5.458 H 16.164 c -3.01,0 -5.457,-2.447 -5.457,-5.458 v -11.56 -5.764 c 0,-3.01 2.447,-5.457 5.457,-5.457 h 17.323 c 3.01,0 5.458,2.447 5.458,5.457 z"
             style="fill:#ffffff;fill-opacity:1" />
          <path
             id="path1447-2-4"
             d="m 32.549,24.826 c 0,4.257 -3.464,7.723 -7.723,7.723 -4.259,0 -7.722,-3.466 -7.722,-7.723 0,-1.024 0.204,-2.003 0.568,-2.897 h -4.215 v 11.56 c 0,1.494 1.213,2.704 2.706,2.704 h 17.323 c 1.491,0 2.706,-1.21 2.706,-2.704 v -11.56 h -4.217 c 0.367,0.894 0.574,1.873 0.574,2.897 z"
             style="fill:#ffffff;fill-opacity:1" />
        </g>
      </g>
    </g>
  </g>
</svg>
